<?xml version="1.0" encoding="UTF-8"?>
<svg id="Layer_1" data-name="Layer 1" xmlns="http://www.w3.org/2000/svg" viewBox="0 0 62.8 116.37">
  <defs>
    <style>
      .cls-1 {
        fill: #f15e22;
      }
    </style>
  </defs>
  <path class="cls-1" d="M56.51,24.48c.09.63-.11,1.28-.29,2.42-.25,1.42-.58,3.2-.81,4.49-.26,1.29-.23,1.96-1.03,2.6-.6.51-1.29.52-1.99.36-2.64-.47-12.18-2.19-14.64-2.63-.96-.23-1.18.29-1.38,1.19-.22,1.07-.47,2.55-.63,3.57-.3,1.41.79,1.73,1.98,2.04,19.19,4.67,30.94,23.75,22.09,40.04-.8,1.34-1.56,2.86-2.77,3.87-.67.44-1.38.15-2.04-.12-2.91-1.26-6.49-1.11-9.09.77-1.22.68-2.12,2.68-3.49,2.36-1.1-.44-2.01-1.31-3.04-1.97-1.06-.73-2.61-1.64-.95-2.75,4.66-2.2,8.81-5.65,10.03-10.84,1.94-8.24-3.92-16.42-12.93-19.17-.65-.21-1.91-.4-2.23-.24-1.16,3.8-8.63,48.06-10.8,59.27-.02.94-1.16,1.84-1.98,1.98-2.8.8-12.83,3.77-15.64,4.57-1.84.51-2.68-1.53-2.41-1.94,1.04-5.68,13.1-73.04,15.3-85.25.28-.75-.62-.97-1.2-1.06-.66-.13-1.81-.32-3.02-.54-1.75-.31-3.73-.67-5.58-1-2.63-.47-4.95-.89-6.09-1.09-.51-.08-1-.25-1.34-.67-.89-1.06-.49-1.88-.23-3.55.11-.62.22-1.24.33-1.86.19-1.06.43-2.43.6-3.32.11-.99.56-1.99,1.54-2.34,4.37.18,39.24,7.01,52.32,9.17.68.13,1.18.82,1.39,1.6v.05Z"/>
  <path class="cls-1" d="M38.24,8.36c-2.22,9.72-16.66,5.67-13.47-3.78,1.7-5.21,8.73-6.1,12.08-2.04,1.22,1.39,1.82,3.74,1.41,5.73l-.02.09Z"/>
  <path class="cls-1" d="M58.3,93.14c-1.38,9.79-16.08,6.88-13.61-2.7,1.35-5.3,8.13-6.67,11.79-2.91,1.3,1.27,2.07,3.53,1.82,5.54v.07Z"/>
</svg>